<svg width="165" height="14" viewBox="0 0 165 14" fill="none" xmlns="http://www.w3.org/2000/svg">
<path d="M0.688 7.416C0.688 6.328 0.933333 5.352 1.424 4.488C1.91467 3.61333 2.58133 2.93067 3.424 2.44C4.27733 1.94933 5.22133 1.704 6.256 1.704C7.472 1.704 8.53333 1.99733 9.44 2.584C10.3467 3.17067 11.008 4.00267 11.424 5.08H9.68C9.37067 4.408 8.92267 3.89067 8.336 3.528C7.76 3.16533 7.06667 2.984 6.256 2.984C5.47733 2.984 4.77867 3.16533 4.16 3.528C3.54133 3.89067 3.056 4.408 2.704 5.08C2.352 5.74133 2.176 6.52 2.176 7.416C2.176 8.30133 2.352 9.08 2.704 9.752C3.056 10.4133 3.54133 10.9253 4.16 11.288C4.77867 11.6507 5.47733 11.832 6.256 11.832C7.06667 11.832 7.76 11.656 8.336 11.304C8.92267 10.9413 9.37067 10.424 9.68 9.752H11.424C11.008 10.8187 10.3467 11.6453 9.44 12.232C8.53333 12.808 7.472 13.096 6.256 13.096C5.22133 13.096 4.27733 12.856 3.424 12.376C2.58133 11.8853 1.91467 11.208 1.424 10.344C0.933333 9.48 0.688 8.504 0.688 7.416ZM13.0474 8.584C13.0474 7.688 13.2287 6.904 13.5914 6.232C13.954 5.54933 14.45 5.02133 15.0794 4.648C15.7194 4.27467 16.4287 4.088 17.2074 4.088C17.9754 4.088 18.642 4.25333 19.2074 4.584C19.7727 4.91467 20.194 5.33067 20.4714 5.832V4.232H21.9434V13H20.4714V11.368C20.1834 11.88 19.7514 12.3067 19.1754 12.648C18.61 12.9787 17.9487 13.144 17.1914 13.144C16.4127 13.144 15.7087 12.952 15.0794 12.568C14.45 12.184 13.954 11.6453 13.5914 10.952C13.2287 10.2587 13.0474 9.46933 13.0474 8.584ZM20.4714 8.6C20.4714 7.93867 20.338 7.36267 20.0714 6.872C19.8047 6.38133 19.442 6.008 18.9834 5.752C18.5354 5.48533 18.0394 5.352 17.4954 5.352C16.9514 5.352 16.4554 5.48 16.0074 5.736C15.5594 5.992 15.202 6.36533 14.9354 6.856C14.6687 7.34667 14.5354 7.92267 14.5354 8.584C14.5354 9.256 14.6687 9.84267 14.9354 10.344C15.202 10.8347 15.5594 11.2133 16.0074 11.48C16.4554 11.736 16.9514 11.864 17.4954 11.864C18.0394 11.864 18.5354 11.736 18.9834 11.48C19.442 11.2133 19.8047 10.8347 20.0714 10.344C20.338 9.84267 20.4714 9.26133 20.4714 8.6ZM23.8599 8.584C23.8599 7.688 24.0412 6.904 24.4039 6.232C24.7665 5.54933 25.2625 5.02133 25.8919 4.648C26.5319 4.27467 27.2465 4.088 28.0359 4.088C28.7185 4.088 29.3532 4.248 29.9399 4.568C30.5265 4.87733 30.9745 5.288 31.2839 5.8V1.16H32.7559V13H31.2839V11.352C30.9959 11.8747 30.5692 12.3067 30.0039 12.648C29.4385 12.9787 28.7772 13.144 28.0199 13.144C27.2412 13.144 26.5319 12.952 25.8919 12.568C25.2625 12.184 24.7665 11.6453 24.4039 10.952C24.0412 10.2587 23.8599 9.46933 23.8599 8.584ZM31.2839 8.6C31.2839 7.93867 31.1505 7.36267 30.8839 6.872C30.6172 6.38133 30.2545 6.008 29.7959 5.752C29.3479 5.48533 28.8519 5.352 28.3079 5.352C27.7639 5.352 27.2679 5.48 26.8199 5.736C26.3719 5.992 26.0145 6.36533 25.7479 6.856C25.4812 7.34667 25.3479 7.92267 25.3479 8.584C25.3479 9.256 25.4812 9.84267 25.7479 10.344C26.0145 10.8347 26.3719 11.2133 26.8199 11.48C27.2679 11.736 27.7639 11.864 28.3079 11.864C28.8519 11.864 29.3479 11.736 29.7959 11.48C30.2545 11.2133 30.6172 10.8347 30.8839 10.344C31.1505 9.84267 31.2839 9.26133 31.2839 8.6ZM34.6724 8.584C34.6724 7.688 34.8537 6.904 35.2164 6.232C35.579 5.54933 36.075 5.02133 36.7044 4.648C37.3444 4.27467 38.0537 4.088 38.8324 4.088C39.6004 4.088 40.267 4.25333 40.8324 4.584C41.3977 4.91467 41.819 5.33067 42.0964 5.832V4.232H43.5684V13H42.0964V11.368C41.8084 11.88 41.3764 12.3067 40.8004 12.648C40.235 12.9787 39.5737 13.144 38.8164 13.144C38.0377 13.144 37.3337 12.952 36.7044 12.568C36.075 12.184 35.579 11.6453 35.2164 10.952C34.8537 10.2587 34.6724 9.46933 34.6724 8.584ZM42.0964 8.6C42.0964 7.93867 41.963 7.36267 41.6964 6.872C41.4297 6.38133 41.067 6.008 40.6084 5.752C40.1604 5.48533 39.6644 5.352 39.1204 5.352C38.5764 5.352 38.0804 5.48 37.6324 5.736C37.1844 5.992 36.827 6.36533 36.5604 6.856C36.2937 7.34667 36.1604 7.92267 36.1604 8.584C36.1604 9.256 36.2937 9.84267 36.5604 10.344C36.827 10.8347 37.1844 11.2133 37.6324 11.48C38.0804 11.736 38.5764 11.864 39.1204 11.864C39.6644 11.864 40.1604 11.736 40.6084 11.48C41.067 11.2133 41.4297 10.8347 41.6964 10.344C41.963 9.84267 42.0964 9.26133 42.0964 8.6ZM49.1329 13.144C48.4609 13.144 47.8582 13.032 47.3249 12.808C46.7915 12.5733 46.3702 12.2533 46.0609 11.848C45.7515 11.432 45.5809 10.9573 45.5489 10.424H47.0529C47.0955 10.8613 47.2982 11.2187 47.6609 11.496C48.0342 11.7733 48.5195 11.912 49.1169 11.912C49.6715 11.912 50.1089 11.7893 50.4289 11.544C50.7489 11.2987 50.9089 10.9893 50.9089 10.616C50.9089 10.232 50.7382 9.94933 50.3969 9.768C50.0555 9.576 49.5275 9.38933 48.8129 9.208C48.1622 9.03733 47.6289 8.86667 47.2129 8.696C46.8075 8.51467 46.4555 8.25333 46.1569 7.912C45.8689 7.56 45.7249 7.10133 45.7249 6.536C45.7249 6.088 45.8582 5.67733 46.1249 5.304C46.3915 4.93067 46.7702 4.63733 47.2609 4.424C47.7515 4.2 48.3115 4.088 48.9409 4.088C49.9115 4.088 50.6955 4.33333 51.2929 4.824C51.8902 5.31467 52.2102 5.98667 52.2529 6.84H50.7969C50.7649 6.38133 50.5782 6.01333 50.2369 5.736C49.9062 5.45867 49.4582 5.32 48.8929 5.32C48.3702 5.32 47.9542 5.432 47.6449 5.656C47.3355 5.88 47.1809 6.17333 47.1809 6.536C47.1809 6.824 47.2715 7.064 47.4529 7.256C47.6449 7.43733 47.8795 7.58667 48.1569 7.704C48.4449 7.81067 48.8395 7.93333 49.3409 8.072C49.9702 8.24267 50.4822 8.41333 50.8769 8.584C51.2715 8.744 51.6075 8.98933 51.8849 9.32C52.1729 9.65067 52.3222 10.0827 52.3329 10.616C52.3329 11.096 52.1995 11.528 51.9329 11.912C51.6662 12.296 51.2875 12.6 50.7969 12.824C50.3169 13.0373 49.7622 13.144 49.1329 13.144ZM56.1643 5.432V10.6C56.1643 11.0267 56.2549 11.3307 56.4363 11.512C56.6176 11.6827 56.9323 11.768 57.3802 11.768H58.4523V13H57.1403C56.3296 13 55.7216 12.8133 55.3163 12.44C54.9109 12.0667 54.7083 11.4533 54.7083 10.6V5.432H53.5723V4.232H54.7083V2.024H56.1643V4.232H58.4523V5.432H56.1643ZM61.6724 5.656C61.9284 5.15467 62.291 4.76533 62.7604 4.488C63.2404 4.21067 63.8217 4.072 64.5044 4.072V5.576H64.1204C62.4884 5.576 61.6724 6.46133 61.6724 8.232V13H60.2164V4.232H61.6724V5.656ZM74.1851 8.28C74.1851 8.55733 74.1691 8.85067 74.1371 9.16H67.1291C67.1825 10.024 67.4758 10.7013 68.0091 11.192C68.5531 11.672 69.2091 11.912 69.9771 11.912C70.6065 11.912 71.1291 11.768 71.5451 11.48C71.9718 11.1813 72.2705 10.7867 72.4411 10.296H74.0091C73.7745 11.1387 73.3051 11.8267 72.6011 12.36C71.8971 12.8827 71.0225 13.144 69.9771 13.144C69.1451 13.144 68.3985 12.9573 67.7371 12.584C67.0865 12.2107 66.5745 11.6827 66.2011 11C65.8278 10.3067 65.6411 9.50667 65.6411 8.6C65.6411 7.69333 65.8225 6.89867 66.1851 6.216C66.5478 5.53333 67.0545 5.01067 67.7051 4.648C68.3665 4.27467 69.1238 4.088 69.9771 4.088C70.8091 4.088 71.5451 4.26933 72.1851 4.632C72.8251 4.99467 73.3158 5.496 73.6571 6.136C74.0091 6.76533 74.1851 7.48 74.1851 8.28ZM72.6811 7.976C72.6811 7.42133 72.5585 6.94667 72.3131 6.552C72.0678 6.14667 71.7318 5.84267 71.3051 5.64C70.8891 5.42667 70.4251 5.32 69.9131 5.32C69.1771 5.32 68.5478 5.55467 68.0251 6.024C67.5131 6.49333 67.2198 7.144 67.1451 7.976H72.6811ZM83.4766 13.144C82.8046 13.144 82.202 13.032 81.6686 12.808C81.1353 12.5733 80.714 12.2533 80.4046 11.848C80.0953 11.432 79.9246 10.9573 79.8926 10.424H81.3966C81.4393 10.8613 81.642 11.2187 82.0046 11.496C82.378 11.7733 82.8633 11.912 83.4606 11.912C84.0153 11.912 84.4526 11.7893 84.7726 11.544C85.0926 11.2987 85.2526 10.9893 85.2526 10.616C85.2526 10.232 85.082 9.94933 84.7406 9.768C84.3993 9.576 83.8713 9.38933 83.1566 9.208C82.506 9.03733 81.9726 8.86667 81.5566 8.696C81.1513 8.51467 80.7993 8.25333 80.5006 7.912C80.2126 7.56 80.0686 7.10133 80.0686 6.536C80.0686 6.088 80.202 5.67733 80.4686 5.304C80.7353 4.93067 81.114 4.63733 81.6046 4.424C82.0953 4.2 82.6553 4.088 83.2846 4.088C84.2553 4.088 85.0393 4.33333 85.6366 4.824C86.234 5.31467 86.554 5.98667 86.5966 6.84H85.1406C85.1086 6.38133 84.922 6.01333 84.5806 5.736C84.25 5.45867 83.802 5.32 83.2366 5.32C82.714 5.32 82.298 5.432 81.9886 5.656C81.6793 5.88 81.5246 6.17333 81.5246 6.536C81.5246 6.824 81.6153 7.064 81.7966 7.256C81.9886 7.43733 82.2233 7.58667 82.5006 7.704C82.7886 7.81067 83.1833 7.93333 83.6846 8.072C84.314 8.24267 84.826 8.41333 85.2206 8.584C85.6153 8.744 85.9513 8.98933 86.2286 9.32C86.5166 9.65067 86.666 10.0827 86.6766 10.616C86.6766 11.096 86.5433 11.528 86.2766 11.912C86.01 12.296 85.6313 12.6 85.1406 12.824C84.6606 13.0373 84.106 13.144 83.4766 13.144ZM96.732 8.28C96.732 8.55733 96.716 8.85067 96.684 9.16H89.676C89.7293 10.024 90.0227 10.7013 90.556 11.192C91.1 11.672 91.756 11.912 92.524 11.912C93.1533 11.912 93.676 11.768 94.092 11.48C94.5187 11.1813 94.8173 10.7867 94.988 10.296H96.556C96.3213 11.1387 95.852 11.8267 95.148 12.36C94.444 12.8827 93.5693 13.144 92.524 13.144C91.692 13.144 90.9453 12.9573 90.284 12.584C89.6333 12.2107 89.1213 11.6827 88.748 11C88.3747 10.3067 88.188 9.50667 88.188 8.6C88.188 7.69333 88.3693 6.89867 88.732 6.216C89.0947 5.53333 89.6013 5.01067 90.252 4.648C90.9133 4.27467 91.6707 4.088 92.524 4.088C93.356 4.088 94.092 4.26933 94.732 4.632C95.372 4.99467 95.8627 5.496 96.204 6.136C96.556 6.76533 96.732 7.48 96.732 8.28ZM95.228 7.976C95.228 7.42133 95.1053 6.94667 94.86 6.552C94.6147 6.14667 94.2787 5.84267 93.852 5.64C93.436 5.42667 92.972 5.32 92.46 5.32C91.724 5.32 91.0947 5.55467 90.572 6.024C90.06 6.49333 89.7667 7.144 89.692 7.976H95.228ZM106.43 4.232V13H104.974V11.704C104.697 12.152 104.307 12.504 103.806 12.76C103.315 13.0053 102.771 13.128 102.174 13.128C101.491 13.128 100.878 12.9893 100.334 12.712C99.7899 12.424 99.3579 11.9973 99.0379 11.432C98.7285 10.8667 98.5739 10.1787 98.5739 9.368V4.232H100.014V9.176C100.014 10.04 100.233 10.7067 100.67 11.176C101.107 11.6347 101.705 11.864 102.462 11.864C103.241 11.864 103.854 11.624 104.302 11.144C104.75 10.664 104.974 9.96533 104.974 9.048V4.232H106.43ZM121.154 8.28C121.154 8.55733 121.138 8.85067 121.106 9.16H114.098C114.151 10.024 114.445 10.7013 114.978 11.192C115.522 11.672 116.178 11.912 116.946 11.912C117.575 11.912 118.098 11.768 118.514 11.48C118.941 11.1813 119.239 10.7867 119.41 10.296H120.978C120.743 11.1387 120.274 11.8267 119.57 12.36C118.866 12.8827 117.991 13.144 116.946 13.144C116.114 13.144 115.367 12.9573 114.706 12.584C114.055 12.2107 113.543 11.6827 113.17 11C112.797 10.3067 112.61 9.50667 112.61 8.6C112.61 7.69333 112.791 6.89867 113.154 6.216C113.517 5.53333 114.023 5.01067 114.674 4.648C115.335 4.27467 116.093 4.088 116.946 4.088C117.778 4.088 118.514 4.26933 119.154 4.632C119.794 4.99467 120.285 5.496 120.626 6.136C120.978 6.76533 121.154 7.48 121.154 8.28ZM119.65 7.976C119.65 7.42133 119.527 6.94667 119.282 6.552C119.037 6.14667 118.701 5.84267 118.274 5.64C117.858 5.42667 117.394 5.32 116.882 5.32C116.146 5.32 115.517 5.55467 114.994 6.024C114.482 6.49333 114.189 7.144 114.114 7.976H119.65ZM129.156 6.52V7.752H122.772V6.52H129.156ZM142.432 4.072C143.115 4.072 143.723 4.216 144.256 4.504C144.79 4.78133 145.211 5.20267 145.52 5.768C145.83 6.33333 145.984 7.02133 145.984 7.832V13H144.544V8.04C144.544 7.16533 144.326 6.49867 143.888 6.04C143.462 5.57067 142.88 5.336 142.144 5.336C141.387 5.336 140.784 5.58133 140.336 6.072C139.888 6.552 139.664 7.25067 139.664 8.168V13H138.224V8.04C138.224 7.16533 138.006 6.49867 137.568 6.04C137.142 5.57067 136.56 5.336 135.824 5.336C135.067 5.336 134.464 5.58133 134.016 6.072C133.568 6.552 133.344 7.25067 133.344 8.168V13H131.888V4.232H133.344V5.496C133.632 5.03733 134.016 4.68533 134.496 4.44C134.987 4.19467 135.526 4.072 136.112 4.072C136.848 4.072 137.499 4.23733 138.064 4.568C138.63 4.89867 139.051 5.384 139.328 6.024C139.574 5.40533 139.979 4.92533 140.544 4.584C141.11 4.24267 141.739 4.072 142.432 4.072ZM147.829 8.584C147.829 7.688 148.01 6.904 148.373 6.232C148.735 5.54933 149.231 5.02133 149.861 4.648C150.501 4.27467 151.21 4.088 151.989 4.088C152.757 4.088 153.423 4.25333 153.989 4.584C154.554 4.91467 154.975 5.33067 155.253 5.832V4.232H156.725V13H155.253V11.368C154.965 11.88 154.533 12.3067 153.957 12.648C153.391 12.9787 152.73 13.144 151.973 13.144C151.194 13.144 150.49 12.952 149.861 12.568C149.231 12.184 148.735 11.6453 148.373 10.952C148.01 10.2587 147.829 9.46933 147.829 8.584ZM155.253 8.6C155.253 7.93867 155.119 7.36267 154.853 6.872C154.586 6.38133 154.223 6.008 153.765 5.752C153.317 5.48533 152.821 5.352 152.277 5.352C151.733 5.352 151.237 5.48 150.789 5.736C150.341 5.992 149.983 6.36533 149.717 6.856C149.45 7.34667 149.317 7.92267 149.317 8.584C149.317 9.256 149.45 9.84267 149.717 10.344C149.983 10.8347 150.341 11.2133 150.789 11.48C151.237 11.736 151.733 11.864 152.277 11.864C152.821 11.864 153.317 11.736 153.765 11.48C154.223 11.2133 154.586 10.8347 154.853 10.344C155.119 9.84267 155.253 9.26133 155.253 8.6ZM159.937 2.808C159.66 2.808 159.425 2.712 159.233 2.52C159.041 2.328 158.945 2.09333 158.945 1.816C158.945 1.53867 159.041 1.304 159.233 1.112C159.425 0.919999 159.66 0.823999 159.937 0.823999C160.204 0.823999 160.428 0.919999 160.609 1.112C160.801 1.304 160.897 1.53867 160.897 1.816C160.897 2.09333 160.801 2.328 160.609 2.52C160.428 2.712 160.204 2.808 159.937 2.808ZM160.641 4.232V13H159.185V4.232H160.641ZM164.579 1.16V13H163.123V1.16H164.579Z" fill="url(#paint0_linear_123_3878)"/>
<defs>
<linearGradient id="paint0_linear_123_3878" x1="69.3588" y1="-7.88001" x2="202.135" y2="113.723" gradientUnits="userSpaceOnUse">
<stop stop-color="#002F52"/>
<stop offset="1" stop-color="#326589"/>
</linearGradient>
</defs>
</svg>
